<mxfile host="app.diagrams.net" agent="Mozilla/5.0 (Windows NT 10.0; Win64; x64) AppleWebKit/537.36 (KHTML, like Gecko) Chrome/130.0.0.0 Safari/537.36" version="24.8.3">
  <diagram name="Page-1" id="e7e014a7-5840-1c2e-5031-d8a46d1fe8dd">
    <mxGraphModel dx="897" dy="556" grid="1" gridSize="10" guides="1" tooltips="1" connect="1" arrows="1" fold="1" page="1" pageScale="1" pageWidth="1169" pageHeight="826" background="none" math="0" shadow="0">
      <root>
        <mxCell id="0" />
        <mxCell id="1" parent="0" />
        <mxCell id="2" value="User" style="swimlane;whiteSpace=wrap" parent="1" vertex="1">
          <mxGeometry x="164.5" y="128" width="280" height="570" as="geometry" />
        </mxCell>
        <mxCell id="3EZGCJM8jiS25kYGgKkf-41" value="In the Home Page" style="ellipse;whiteSpace=wrap;html=1;" vertex="1" parent="2">
          <mxGeometry x="80" y="62" width="110" height="58" as="geometry" />
        </mxCell>
        <mxCell id="3EZGCJM8jiS25kYGgKkf-42" value="Clicks on View Account Details" style="ellipse;whiteSpace=wrap;html=1;" vertex="1" parent="2">
          <mxGeometry x="80" y="162" width="110" height="58" as="geometry" />
        </mxCell>
        <mxCell id="3EZGCJM8jiS25kYGgKkf-44" value="" style="endArrow=classic;html=1;rounded=0;exitX=0.543;exitY=0.89;exitDx=0;exitDy=0;exitPerimeter=0;" edge="1" parent="2">
          <mxGeometry width="50" height="50" relative="1" as="geometry">
            <mxPoint x="134.73000000000002" y="122" as="sourcePoint" />
            <mxPoint x="134.5" y="168.38" as="targetPoint" />
          </mxGeometry>
        </mxCell>
        <mxCell id="3EZGCJM8jiS25kYGgKkf-46" value="" style="endArrow=classic;html=1;rounded=0;exitX=0.543;exitY=0.89;exitDx=0;exitDy=0;exitPerimeter=0;" edge="1" parent="2">
          <mxGeometry width="50" height="50" relative="1" as="geometry">
            <mxPoint x="215.73000000000002" y="182" as="sourcePoint" />
            <mxPoint x="365.5" y="182" as="targetPoint" />
          </mxGeometry>
        </mxCell>
        <mxCell id="3EZGCJM8jiS25kYGgKkf-50" value="Clicks on Add Driver Info" style="ellipse;whiteSpace=wrap;html=1;" vertex="1" parent="2">
          <mxGeometry x="85" y="242" width="110" height="58" as="geometry" />
        </mxCell>
        <mxCell id="3EZGCJM8jiS25kYGgKkf-54" value="" style="endArrow=classic;html=1;rounded=0;exitX=0.5;exitY=1;exitDx=0;exitDy=0;" edge="1" parent="2">
          <mxGeometry width="50" height="50" relative="1" as="geometry">
            <mxPoint x="150.5" y="300" as="sourcePoint" />
            <mxPoint x="355.5" y="362" as="targetPoint" />
            <Array as="points">
              <mxPoint x="150.5" y="362" />
            </Array>
          </mxGeometry>
        </mxCell>
        <mxCell id="3" value="System" style="swimlane;whiteSpace=wrap" parent="1" vertex="1">
          <mxGeometry x="444.5" y="128" width="280" height="570" as="geometry" />
        </mxCell>
        <mxCell id="3EZGCJM8jiS25kYGgKkf-43" value="Display Account details" style="ellipse;whiteSpace=wrap;html=1;" vertex="1" parent="3">
          <mxGeometry x="95.5" y="152" width="110" height="58" as="geometry" />
        </mxCell>
        <mxCell id="3EZGCJM8jiS25kYGgKkf-53" value="Clicks on Add Driver Info" style="ellipse;whiteSpace=wrap;html=1;" vertex="1" parent="3">
          <mxGeometry x="75.5" y="332" width="110" height="58" as="geometry" />
        </mxCell>
        <mxCell id="3EZGCJM8jiS25kYGgKkf-51" value="" style="endArrow=classic;html=1;rounded=0;exitX=0.5;exitY=1;exitDx=0;exitDy=0;entryX=1;entryY=0.5;entryDx=0;entryDy=0;" edge="1" parent="1" source="3EZGCJM8jiS25kYGgKkf-43" target="3EZGCJM8jiS25kYGgKkf-50">
          <mxGeometry width="50" height="50" relative="1" as="geometry">
            <mxPoint x="510" y="308.5" as="sourcePoint" />
            <mxPoint x="659.77" y="308.5" as="targetPoint" />
            <Array as="points">
              <mxPoint x="595" y="400" />
            </Array>
          </mxGeometry>
        </mxCell>
      </root>
    </mxGraphModel>
  </diagram>
</mxfile>
